<?xml version="1.0" encoding="UTF-8" standalone="no"?>
<!-- Created with Inkscape (http://www.inkscape.org/) -->

<svg
   xmlns:dc="http://purl.org/dc/elements/1.1/"
   xmlns:cc="http://creativecommons.org/ns#"
   xmlns:rdf="http://www.w3.org/1999/02/22-rdf-syntax-ns#"
   xmlns:svg="http://www.w3.org/2000/svg"
   xmlns="http://www.w3.org/2000/svg"
   xmlns:sodipodi="http://sodipodi.sourceforge.net/DTD/sodipodi-0.dtd"
   xmlns:inkscape="http://www.inkscape.org/namespaces/inkscape"
   width="345.81729"
   height="345.69611"
   id="svg3002"
   version="1.1"
   inkscape:version="0.48.4 r9939"
   sodipodi:docname="authomatic-logo.svg">
  <defs
     id="defs3004" />
  <sodipodi:namedview
     id="base"
     pagecolor="#ffffff"
     bordercolor="#666666"
     borderopacity="1.0"
     inkscape:pageopacity="0.0"
     inkscape:pageshadow="2"
     inkscape:zoom="1.979899"
     inkscape:cx="222.5268"
     inkscape:cy="171.83705"
     inkscape:document-units="px"
     inkscape:current-layer="layer1"
     showgrid="false"
     inkscape:window-width="1600"
     inkscape:window-height="839"
     inkscape:window-x="1024"
     inkscape:window-y="42"
     inkscape:window-maximized="0"
     borderlayer="false"
     fit-margin-top="0"
     fit-margin-left="0"
     fit-margin-right="0"
     fit-margin-bottom="0" />
  <metadata
     id="metadata3007">
    <rdf:RDF>
      <cc:Work
         rdf:about="">
        <dc:format>image/svg+xml</dc:format>
        <dc:type
           rdf:resource="http://purl.org/dc/dcmitype/StillImage" />
        <dc:title></dc:title>
      </cc:Work>
    </rdf:RDF>
  </metadata>
  <g
     inkscape:label="Layer 1"
     inkscape:groupmode="layer"
     id="layer1"
     transform="translate(-181.37707,-168.08555)">
    <path
       d="m 282.43355,168.118 c -54.22512,1.39296 -98.66311,44.6115 -100.91683,99.40021 l -0.10788,1.62081 c -0.0207,0.85883 1.7e-4,1.73876 0,2.59306 l 0,34.574 0,69.14798 0,32.08879 c -1.40343,57.25798 43.8706,104.80414 101.13294,106.20713 0.86616,0.0346 1.73145,0 2.59315,0 l 135.70826,0 c 56.59101,1.38677 103.88473,-42.95265 106.21117,-99.50808 l 0.10823,-1.62081 c 0.0207,-0.85884 -1.8e-4,-1.73872 0,-2.59306 l 0,-34.57397 0,-69.14798 0,-32.08882 C 528.56595,216.95928 483.29198,169.52134 426.02968,168.118 c -0.86619,-0.0346 -1.73146,0 -2.59316,0 l -135.70829,0 c -1.76845,-0.0415 -3.54514,-0.045 -5.29433,0 z m 2.70121,69.14798 0.86436,0 137.43706,0 0.8644,0 c 18.7985,0.46052 33.71023,15.76814 33.71095,34.4661 0,0.28698 0.007,0.57392 0,0.86436 l 0,33.70964 0,63.20538 0,5.9426 0,34.57397 c 0,0.28698 0.007,0.57393 0,0.86436 l 0,0.54005 c -0.76378,18.56691 -16.0928,33.17302 -34.57535,33.16956 l -0.8644,0 -137.43702,0 -0.8644,0 c -18.7985,-0.46051 -33.71023,-15.87601 -33.71095,-34.57397 0,-0.28698 -0.007,-0.57392 0,-0.86436 l 0,-33.70961 0,-5.9426 0,-57.26282 0,-5.94256 0,-34.574 c 0,-0.28698 -0.007,-0.57393 0,-0.86433 l 0,-0.54008 c 0.76374,-18.56691 16.09276,-33.06169 34.57535,-33.06169 z"
       id="path3875"
       style="fill:#f2cb05;fill-opacity:1;stroke:none"
       inkscape:connector-curvature="0" />
    <g
       transform="matrix(0.30989705,0,0,0.31773404,265.71426,353.17497)"
       id="g3024">
      <path
         inkscape:connector-curvature="0"
         style="fill:#f2cb05;fill-opacity:1;stroke:none"
         id="path3875-0"
         d="M 509.21064,0.03335798 C 493.52772,0.4362356 480.67542,12.935841 480.0236,28.781761 l -0.0312,0.468774 c -0.006,0.248386 5e-5,0.502872 0,0.749958 l 0,9.999445 0,19.998889 0,9.280684 c -0.4059,16.56008 12.6882,30.311316 29.24954,30.717094 0.25051,0.01 0.50077,0 0.74999,0 l 39.24937,0 c 16.36718,0.401075 30.04541,-12.42271 30.71826,-28.779601 l 0.0313,-0.468774 c 0.006,-0.248387 -5e-5,-0.502873 0,-0.749959 l 0,-9.999444 0,-19.998889 0,-9.280685 c 0.40588,-16.56008 -12.6882,-30.28001757 -29.24953,-30.68589502 -0.25052,-0.0099994 -0.50077,0 -0.74999,0 l -39.24938,0 c -0.51147,-0.01199933 -1.02532,-0.01299928 -1.53122,0 z m 0.78124,19.99888902 0.24999,0 39.74937,0 0.25,0 c 5.43688,0.133193 9.74963,4.560447 9.74984,9.968246 0,0.083 0.002,0.165991 0,0.249986 l 0,9.749459 0,18.280184 0,1.718705 0,9.999444 c 0,0.083 0.002,0.165991 0,0.249986 l 0,0.156192 c -0.2209,5.369901 -4.65434,9.594267 -9.99984,9.593267 l -0.25,0 -39.74936,0 -0.25,0 c -5.43688,-0.133193 -9.74963,-4.591645 -9.74984,-9.999445 0,-0.08299 -0.002,-0.165991 0,-0.249986 l 0,-9.749458 0,-1.718705 0,-16.56148 0,-1.718704 0,-9.999445 c 0,-0.083 -0.002,-0.165991 0,-0.249986 l 0,-0.156191 c 0.22089,-5.369902 4.65433,-9.562069 9.99984,-9.562069 z" />
      <path
         inkscape:connector-curvature="0"
         style="fill:#6f6573;fill-opacity:1;stroke:none"
         id="path3087"
         d="M 9.75903,0.00305966 C 4.2379279,0.13835215 -0.12611266,4.731597 0.00918518,10.25249 l 0,0.156292 c 0.22091649,5.370601 4.65369592,9.594467 9.99984082,9.593167 0.0822,0 0.167397,0 0.249996,0 l 31.468249,0 28.030804,0 0.249996,0 c 5.408834,2e-4 9.866593,4.31216 9.999841,9.749458 0.135297,5.520893 -4.228743,10.114138 -9.749845,10.249431 -0.0826,0 -0.167828,0 -0.249996,0 l -28.2808,0 -12.468551,0 C 12.695413,40.406715 -0.39671835,54.18645 0.00918518,70.74913 l 0.03129951,0.468673 C 0.71336397,87.577395 14.389576,100.39858 30.758696,99.997505 l 19.249693,0 c 0.0822,0 0.167398,0 0.249996,0 5.521102,-0.135293 9.885143,-4.728538 9.749845,-10.249431 -0.133248,-5.437298 -4.591007,-9.749258 -9.999841,-9.749458 l -0.249986,0 -19.499699,0 c -0.0826,0 -0.167828,0 -0.249996,0 -5.346145,0 -9.778925,-4.222566 -9.999841,-9.593267 l 0,-0.156192 c -0.135298,-5.520893 4.228742,-10.114138 9.749845,-10.24943 0.0836,0 0.166857,0 0.249996,0 l 28.280799,0 11.468568,0 0.249996,0 c 5.408834,2e-4 9.866593,4.31216 9.999841,9.749458 0.002,0.084 0,0.166891 0,0.249986 l 0,19.998889 c 0,0.083 -0.002,0.166391 0,0.249986 l 0,0.156192 c 0.224316,5.453197 4.793463,9.726962 10.249836,9.593267 5.437524,-0.133293 9.749632,-4.590845 9.749842,-9.999445 0,-0.08299 0.002,-0.166391 0,-0.249986 l 0,-58.934226 c 0.0134,-0.511772 0.0127,-1.013544 0,-1.531115 C 99.60778,12.968539 86.237642,5.983055e-5 70.008071,0.00305966 l -59.999045,0 c -0.083099,0 -0.1664174,0 -0.249996,0 z m 239.99618,0 C 244.23411,0.13835215 239.87007,4.731597 240.00536,10.25249 l 0,0.156292 c 0.22092,5.370601 4.6537,9.594467 9.99985,9.593167 0.0822,0 0.16739,0 0.24999,0 l 19.49969,0 0.25,0 c 5.40883,2e-4 9.86659,4.31216 9.99984,9.749458 0.002,0.08399 0,0.166891 0,0.249986 l 0,59.996667 c 0,0.083 -0.002,0.166391 0,0.249986 l 0,0.156192 c 0.22431,5.453197 4.79346,9.726962 10.24983,9.593267 5.43753,-0.133293 9.74964,-4.590845 9.74985,-9.999445 0,-0.08299 0.002,-0.166391 0,-0.249986 l 0,-59.340403 0,-0.156292 c -0.002,-0.084 0,-0.16679 0,-0.249986 2.1e-4,-5.408599 4.31232,-9.866152 9.74984,-9.999444 0.0836,0 0.16686,0 0.25,0 l 19.99968,0 c 0.0822,0 0.1674,0 0.25,0 5.5211,-0.135293 9.88514,-4.728538 9.74984,-10.2494309 -0.13325,-5.437298 -4.591,-9.74925845 -9.99984,-9.74945844 l -0.24999,0 -79.74873,0 c -0.0831,0 -0.16642,0 -0.25,0 z m 119.99809,0 c -5.43752,0.1332926 -9.74964,4.59084494 -9.74985,9.99944434 0,0.083 -0.002,0.166491 0,0.249986 l 0,0.156292 0,79.589278 c 0,0.083 -0.002,0.166391 0,0.249986 l 0,0.156192 c 0.22432,5.453197 4.79347,9.726962 10.24984,9.593267 5.43752,-0.133293 9.74964,-4.590845 9.74985,-9.999445 0,-0.08299 0.002,-0.166391 0,-0.249986 l 0,-19.342725 0,-0.156192 c -0.002,-0.084 0,-0.16689 0,-0.249986 2.1e-4,-5.408599 4.31232,-9.866152 9.74984,-9.999444 0.0836,0 0.16686,0 0.25,0 l 39.74936,0 0.25,0 c 5.40883,2e-4 9.86659,4.31216 9.99984,9.749458 0.002,0.084 0,0.166891 0,0.249986 l 0,19.998889 c 0,0.083 -0.002,0.166391 0,0.249986 l 0,0.156192 c 0.22432,5.453197 4.79346,9.726962 10.24984,9.593267 5.43752,-0.133293 9.74963,-4.590845 9.74984,-9.999445 0,-0.08299 0.002,-0.166391 0,-0.249986 l 0,-79.74557 c 0,-0.082995 0.002,-0.1663906 0,-0.2499859 -0.1353,-5.5208933 -4.72873,-9.88475092 -10.24983,-9.74945844 -5.43753,0.1332926 -9.74964,4.59084494 -9.74985,9.99944434 0,0.083 -0.002,0.166491 0,0.249986 l 0,0.156292 0,19.342625 c 0.002,0.08399 0,0.166891 0,0.249986 -2.1e-4,5.4087 -4.31232,9.866252 -9.74984,9.999445 -0.0826,0 -0.16783,0 -0.25,0 l -39.74937,0 c -0.0826,0 -0.16782,0 -0.24999,0 -5.34615,0 -9.77894,-4.222566 -9.99984,-9.593167 l 0,-0.156292 c -0.002,-0.084 0,-0.16679 0,-0.249986 l 0,-19.998889 c 0,-0.082995 0.002,-0.1663906 0,-0.2499859 -0.1353,-5.5208933 -4.72874,-9.88475092 -10.24984,-9.74945844 z m -239.99618,0 c -5.43752,0.1332926 -9.74964,4.59084494 -9.74985,9.99944434 0,0.083 -0.002,0.166491 0,0.249986 l 0,0.156292 0,58.777934 0,0.812455 c 5e-5,0.247086 -0.006,0.501572 0,0.749959 l 0.0313,0.468673 c 0.66247,16.107806 13.93602,28.779002 29.96824,28.779702 0.24921,0 0.49949,0.01 0.74999,0 l 38.46812,0 0.78124,0 c 0.24921,0 0.49947,0.01 0.74999,0 16.31775,-0.399878 29.26122,-13.763436 29.24953,-29.998334 -1.7e-4,-0.241686 0.006,-0.475773 0,-0.71876 l 0,-59.277907 c 0,-0.082995 0.002,-0.1663906 0,-0.2499859 -0.1353,-5.5208933 -4.72873,-9.88475092 -10.24983,-9.74945844 -5.43753,0.1332926 -9.74964,4.59084494 -9.74985,9.99944434 0,0.083 -0.002,0.166491 0,0.249986 l 0,0.156292 0,31.31076 0,28.029643 c 0.002,0.084 0,0.166891 0,0.249986 -2.1e-4,5.4085 -4.31261,9.866252 -9.74984,9.999445 -0.0826,0 -0.16783,0 -0.25,0 l -39.74936,0 c -0.0826,0 -0.16782,0 -0.24999,0 -5.34586,0 -9.77894,-4.222766 -9.99984,-9.593267 l 0,-0.156192 c -0.002,-0.084 0,-0.16689 0,-0.249986 l 0,-28.279629 0,-31.717038 c 0,-0.082995 0.002,-0.1663906 0,-0.2499859 -0.13531,-5.5208933 -4.72875,-9.88475092 -10.24985,-9.74945844 z M 89.749456,119.99639 c -5.437523,0.1332 -9.749634,4.59085 -9.749844,9.99945 0,0.083 -0.002,0.16639 0,0.24998 l 0,0.1562 0,79.58937 c 0,0.083 -0.002,0.16639 0,0.24999 l 0,0.15619 c 0.224306,5.4532 4.793463,9.72696 10.249837,9.59327 5.437523,-0.13329 9.749634,-4.59085 9.749844,-9.99945 0,-0.083 0.002,-0.16639 0,-0.24998 l 0,-79.74557 c 0,-0.083 0.002,-0.16639 0,-0.24999 -0.135298,-5.52089 -4.728734,-9.88475 -10.249837,-9.74946 z m -39.999363,0 c -5.437523,0.1332 -9.749634,4.59085 -9.749844,9.99945 0,0.083 -0.002,0.16639 0,0.24998 l 0,0.1562 0,79.58937 c 0,0.083 -0.002,0.16639 0,0.24999 l 0,0.15619 c 0.224306,5.4532 4.793463,9.72696 10.249836,9.59327 5.437524,-0.13329 9.749635,-4.59085 9.749845,-9.99945 0,-0.083 0.002,-0.16639 0,-0.24998 l 0,-79.74557 c 0,-0.083 0.002,-0.16639 0,-0.24999 -0.135298,-5.52089 -4.728735,-9.88475 -10.249837,-9.74946 z m -39.9993629,0 c -5.4375234,0.1332 -9.74963479,4.59085 -9.74984478393,9.99945 0,0.083 -0.001999966,0.16639 0,0.24998 l 0,0.1562 0,79.58937 c 0,0.083 -0.001999966,0.16639 0,0.24999 l 0,0.15619 C 0.22520174,215.85077 4.794349,220.12453 10.250722,219.99084 c 5.437524,-0.13329 9.749635,-4.59085 9.749845,-9.99945 0,-0.083 0.002,-0.16639 0,-0.24998 l 0,-79.74557 c 0,-0.083 0.002,-0.16639 0,-0.24999 -0.135298,-5.52089 -4.728735,-9.88475 -10.2498369,-9.74946 z m 119.9980899,0 c -5.5211,0.1353 -9.88514,4.72854 -9.74985,10.24943 l 0,0.1562 c 0.22092,5.3707 4.6537,9.59446 9.99985,9.59326 0.0822,0 0.16739,0 0.24999,0 l 31.46825,0 28.0308,0 0.25,0 c 5.40781,2e-4 9.86664,4.31266 9.99984,9.74946 0.1353,5.52039 -4.22973,10.11414 -9.74984,10.24943 -0.083,0 -0.1678,0 -0.25,0 l -28.2808,0 -12.46855,0 c -16.56024,0.40588 -29.65533,14.18711 -29.24954,30.74829 l 0.0313,0.46868 c 0.67274,16.35809 14.35218,29.18078 30.71822,28.7797 l 19.24969,0 c 0.0822,0 0.1674,0 0.24999,0 5.52111,-0.13529 9.88515,-4.72854 9.74985,-10.24943 -0.13325,-5.4373 -4.59101,-9.74926 -9.99984,-9.74946 l -0.24999,0 -19.4997,0 c -0.083,0 -0.16789,0 -0.24999,0 -5.34522,0 -9.77905,-4.22307 -9.99984,-9.59327 l 0,-0.15619 c -0.1353,-5.52039 4.22983,-10.11414 9.74984,-10.24943 0.084,0 0.1668,0 0.25,0 l 28.2808,0 11.46856,0 0.25,0 c 5.40781,2e-4 9.86654,4.31266 9.99984,9.74946 l 0,0.24999 0,19.99888 c 0,0.083 -0.002,0.16639 0,0.24999 l 0,0.15619 c 0.22432,5.4532 4.79347,9.72696 10.24984,9.59327 5.43752,-0.13329 9.74963,-4.59085 9.74984,-9.99945 0,-0.083 0.002,-0.16639 0,-0.24998 l 0,-58.93423 c 0.013,-0.51177 0.013,-1.01364 0,-1.53121 -0.39989,-16.3127 -13.77308,-29.28258 -29.99952,-29.27958 l -59.99904,0 c -0.0831,0 -0.16642,0 -0.25,0 z m 119.99809,0 c -5.5211,0.1353 -9.88514,4.72854 -9.74985,10.24943 l 0,0.1562 c 0.22092,5.3707 4.6537,9.59446 9.99985,9.59326 0.0822,0 0.16739,0 0.24999,0 l 19.4997,0 0.25,0 c 5.40881,2e-4 9.86653,4.31216 9.99983,9.74946 l 0,0.24999 0,59.99666 c 0,0.083 -0.002,0.16639 0,0.24999 l 0,0.15619 c 0.22431,5.4532 4.79346,9.72696 10.24983,9.59327 5.43753,-0.13329 9.74964,-4.59085 9.74985,-9.99945 0,-0.083 0.002,-0.16639 0,-0.24998 l 0,-59.34051 0,-0.15619 0,-0.24998 c 2e-4,-5.4086 4.31233,-9.86625 9.74984,-9.99945 0.084,0 0.1668,0 0.25,0 l 19.99968,0 c 0.0822,0 0.1674,0 0.25,0 5.5211,-0.13529 9.88514,-4.72853 9.74984,-10.24943 -0.13325,-5.4373 -4.591,-9.74926 -9.99984,-9.74946 l -0.24999,0 -79.74873,0 c -0.0831,0 -0.16642,0 -0.25,0 z m 119.99809,0 c -5.5211,0.1353 -9.88514,4.72854 -9.74985,10.24943 l 0,0.1562 c 0.22092,5.3707 4.6537,9.59446 9.99984,9.59326 0.0822,0 0.1674,0 0.25,0 l 19.34344,0 0.15625,0 0.25,0 c 5.40881,2e-4 9.86654,4.31216 9.99984,9.74946 l 0,0.24999 0,39.74779 0,0.24999 c -2e-4,5.40859 -4.31233,9.86615 -9.74985,9.99944 l -0.24999,0 -19.99969,0 c -0.0831,0 -0.16641,0 -0.24999,0 -5.5211,0.13529 -9.88514,4.72854 -9.74985,10.24943 l 0,0.15619 c 0.22092,5.3707 4.6537,9.59447 9.99984,9.59327 0.0822,0 0.1674,0 0.25,0 l 79.74873,0 c 0.0822,0 0.1674,0 0.25,0 5.5211,-0.13529 9.88514,-4.72854 9.74984,-10.24943 -0.13325,-5.4373 -4.591,-9.74926 -9.99984,-9.74946 l -0.24999,0 -19.49969,0 -0.25,0 c -5.40881,-2e-4 -9.86664,-4.31216 -9.99984,-9.74946 l 0,-0.24998 0,-39.7478 0,-0.24998 c -10e-4,-5.34601 4.22268,-9.77856 9.5936,-9.99945 l 0.15624,0 0.25,0 19.99968,0 c 0.0822,0 0.1674,0 0.25,0 5.5211,-0.13529 9.88514,-4.72853 9.74984,-10.24943 -0.13325,-5.4373 -4.591,-9.74926 -9.99984,-9.74946 l -0.24999,0 -79.74874,0 c -0.0831,0 -0.16641,0 -0.24999,0 z m 139.49778,0 -0.46874,0.031 c -16.10795,0.66237 -28.7801,13.93593 -28.7808,29.96704 0,0.24918 -0.01,0.49947 0,0.74996 l 0,38.46656 0,0.78126 c 0,0.24918 -0.01,0.49947 0,0.74995 0.3999,16.3166 13.76428,29.26008 29.99953,29.24838 0.24169,-2e-4 0.47584,0.01 0.71873,0 l 59.28031,0 c 0.0822,0 0.1674,0 0.25,0 5.5211,-0.13529 9.88514,-4.72854 9.74984,-10.24943 -0.13325,-5.4373 -4.59101,-9.74926 -9.99984,-9.74946 l -0.25,0 -31.46824,0 -28.03081,0 -0.24999,0 c -5.40852,-2e-4 -9.86655,-4.31266 -9.99984,-9.74946 l 0,-0.24998 0,-39.7478 0,-0.24998 c -10e-4,-5.34551 4.22298,-9.77856 9.59359,-9.99945 l 0.15625,0 0.25,0 28.2808,0 31.71824,0 c 0.0822,0 0.1674,0 0.25,0 5.5211,-0.13529 9.88514,-4.72853 9.74984,-10.24943 -0.13325,-5.4373 -4.59101,-9.74926 -9.99984,-9.74946 l -0.25,0 -58.93656,0 -0.81248,0 c -0.2471,1e-4 -0.5015,-0.01 -0.74999,0 z" />
    </g>
  </g>
</svg>
